<svg id="visual" viewBox="0 0 1920 200" width="1920" height="200" xmlns="http://www.w3.org/2000/svg" xmlns:xlink="http://www.w3.org/1999/xlink" version="1.1"><rect x="0" y="0" width="1920" height="200" fill="#ffffff"></rect><path d="M0 87L45.7 87.5C91.3 88 182.7 89 274.2 86C365.7 83 457.3 76 548.8 69.5C640.3 63 731.7 57 823 53C914.3 49 1005.7 47 1097 53.2C1188.3 59.3 1279.7 73.7 1371.2 75C1462.7 76.3 1554.3 64.7 1645.8 61C1737.3 57.3 1828.7 61.7 1874.3 63.8L1920 66L1920 201L1874.3 201C1828.7 201 1737.3 201 1645.8 201C1554.3 201 1462.7 201 1371.2 201C1279.7 201 1188.3 201 1097 201C1005.7 201 914.3 201 823 201C731.7 201 640.3 201 548.8 201C457.3 201 365.7 201 274.2 201C182.7 201 91.3 201 45.7 201L0 201Z" fill="#c4d7f3"></path><path d="M0 71L45.7 72.8C91.3 74.7 182.7 78.3 274.2 85.7C365.7 93 457.3 104 548.8 106.3C640.3 108.7 731.7 102.3 823 98.2C914.3 94 1005.7 92 1097 88.8C1188.3 85.7 1279.7 81.3 1371.2 79C1462.7 76.7 1554.3 76.3 1645.8 80.2C1737.3 84 1828.7 92 1874.3 96L1920 100L1920 201L1874.3 201C1828.7 201 1737.3 201 1645.8 201C1554.3 201 1462.7 201 1371.2 201C1279.7 201 1188.3 201 1097 201C1005.7 201 914.3 201 823 201C731.7 201 640.3 201 548.8 201C457.3 201 365.7 201 274.2 201C182.7 201 91.3 201 45.7 201L0 201Z" fill="#b2ccf3"></path><path d="M0 94L45.7 98.2C91.3 102.3 182.7 110.7 274.2 117.3C365.7 124 457.3 129 548.8 129C640.3 129 731.7 124 823 124.7C914.3 125.3 1005.7 131.7 1097 129.7C1188.3 127.7 1279.7 117.3 1371.2 116.3C1462.7 115.3 1554.3 123.7 1645.8 126.5C1737.3 129.3 1828.7 126.7 1874.3 125.3L1920 124L1920 201L1874.3 201C1828.7 201 1737.3 201 1645.8 201C1554.3 201 1462.7 201 1371.2 201C1279.7 201 1188.3 201 1097 201C1005.7 201 914.3 201 823 201C731.7 201 640.3 201 548.8 201C457.3 201 365.7 201 274.2 201C182.7 201 91.3 201 45.7 201L0 201Z" fill="#a0c1f2"></path><path d="M0 140L45.7 138C91.3 136 182.7 132 274.2 130C365.7 128 457.3 128 548.8 131C640.3 134 731.7 140 823 140.5C914.3 141 1005.7 136 1097 137.2C1188.3 138.3 1279.7 145.7 1371.2 148.2C1462.7 150.7 1554.3 148.3 1645.8 146.3C1737.3 144.3 1828.7 142.7 1874.3 141.8L1920 141L1920 201L1874.3 201C1828.7 201 1737.3 201 1645.8 201C1554.3 201 1462.7 201 1371.2 201C1279.7 201 1188.3 201 1097 201C1005.7 201 914.3 201 823 201C731.7 201 640.3 201 548.8 201C457.3 201 365.7 201 274.2 201C182.7 201 91.3 201 45.7 201L0 201Z" fill="#8eb6f2"></path><path d="M0 178L45.7 175.2C91.3 172.3 182.7 166.7 274.2 164C365.7 161.3 457.3 161.7 548.8 163C640.3 164.3 731.7 166.7 823 167C914.3 167.3 1005.7 165.7 1097 162.7C1188.3 159.7 1279.7 155.3 1371.2 157.3C1462.7 159.3 1554.3 167.7 1645.8 172.8C1737.3 178 1828.7 180 1874.3 181L1920 182L1920 201L1874.3 201C1828.7 201 1737.3 201 1645.8 201C1554.3 201 1462.7 201 1371.2 201C1279.7 201 1188.3 201 1097 201C1005.7 201 914.3 201 823 201C731.7 201 640.3 201 548.8 201C457.3 201 365.7 201 274.2 201C182.7 201 91.3 201 45.7 201L0 201Z" fill="#7baaf1"></path></svg>