<svg id="visual" viewBox="0 0 1920 200" width="1920" height="200" xmlns="http://www.w3.org/2000/svg" xmlns:xlink="http://www.w3.org/1999/xlink" version="1.1"><rect x="0" y="0" width="1920" height="200" fill="#FFFFFF"></rect><path d="M0 109L29.2 96.8C58.3 84.7 116.7 60.3 174.8 62.3C233 64.3 291 92.7 349.2 110.3C407.3 128 465.7 135 523.8 128.7C582 122.3 640 102.7 698.2 102.2C756.3 101.7 814.7 120.3 872.8 120.2C931 120 989 101 1047.2 104.8C1105.3 108.7 1163.7 135.3 1221.8 134.8C1280 134.3 1338 106.7 1396.2 103.5C1454.3 100.3 1512.7 121.7 1570.8 115.3C1629 109 1687 75 1745.2 61.8C1803.3 48.7 1861.7 56.3 1890.8 60.2L1920 64L1920 201L1890.8 201C1861.7 201 1803.3 201 1745.2 201C1687 201 1629 201 1570.8 201C1512.7 201 1454.3 201 1396.2 201C1338 201 1280 201 1221.8 201C1163.7 201 1105.3 201 1047.2 201C989 201 931 201 872.8 201C814.7 201 756.3 201 698.2 201C640 201 582 201 523.8 201C465.7 201 407.3 201 349.2 201C291 201 233 201 174.8 201C116.7 201 58.3 201 29.2 201L0 201Z" fill="#7BAAF1" stroke-linecap="round" stroke-linejoin="miter"></path></svg>